<!--?xml version="1.0" encoding="utf-8"?-->
<!-- Simple GitHub mark (monochrome) - safe to inline as an SVG React component -->
<svg viewBox="0 0 24 24" xmlns="http://www.w3.org/2000/svg" role="img" aria-label="GitHub">
  <title>GitHub</title>
  <path fill="currentColor" d="M12 .297c-6.63 0-12 5.373-12 12 0 5.303 3.438 9.8 8.205 11.387.6.113.82-.258.82-.577 0-.285-.01-1.04-.015-2.04-3.338.724-4.042-1.61-4.042-1.61-.546-1.387-1.333-1.757-1.333-1.757-1.09-.745.083-.73.083-.73 1.205.085 1.84 1.237 1.84 1.237 1.07 1.834 2.807 1.304 3.492.997.108-.776.418-1.304.76-1.604-2.665-.303-5.467-1.334-5.467-5.932 0-1.31.467-2.381 1.235-3.221-.124-.303-.535-1.524.117-3.176 0 0 1.008-.322 3.301 1.23.957-.266 1.983-.399 3.003-.404 1.02.005 2.047.138 3.005.404 2.29-1.552 3.297-1.23 3.297-1.23.653 1.653.242 2.874.118 3.176.77.84 1.233 1.911 1.233 3.221 0 4.61-2.807 5.625-5.48 5.921.43.372.814 1.102.814 2.222 0 1.604-.015 2.896-.015 3.287 0 .32.216.694.825.576C20.565 22.092 24 17.592 24 12.297 24 5.67 18.627.297 12 .297z"></path>
</svg>
